:version 1.10
:name ASF
:units
  mass 1
  length 1
  angle deg
:documentation
  ASF file generated by Kaydara
:root
  axis xyz
  order  tx ty tz rx ry rz
  position 0 0 0
  orientation 0 0 0
:bonedata
  begin
    id 1
    name lfemurDummy
    direction 0.61522 -0.761478 0.204097
    length 5.68318
    axis 0 -0 0 xyz
  end
  begin
    id 2
    name lfemur
    direction 0.34202 -0.939693 -5.84747e-008
    length 16.9147
    axis 0 -0 20 xyz
    dof rx ry rz
    limits( -inf , inf )
( -inf , inf )
( -inf , inf )

  end
  begin
    id 3
    name ltibia
    direction 0.34202 -0.939693 1.20839e-009
    length 18.0532
    axis 0 -0 20 xyz
    dof rz ry rx
    limits( -inf , inf )
( -inf , inf )
( -inf , inf )

  end
  begin
    id 4
    name lfoot
    direction 0.0841971 -0.23133 0.969225
    length 5.23822
    axis -90 7.62852e-016 20 xyz
    dof ry rx rz
    limits( -inf , inf )
( -inf , inf )
( -inf , inf )

  end
  begin
    id 5
    name ltoes
    direction 0 0 0
    length 0
    axis 0 0 0 xyz
    dof rz ry rx
    limits( -inf , inf )
( -inf , inf )
( -inf , inf )

  end
  begin
    id 6
    name rfemurDummy
    direction -0.625247 -0.75382 0.202044
    length 5.74091
    axis 0 -0 0 xyz
  end
  begin
    id 7
    name rfemur
    direction -0.34202 -0.939693 -1.47013e-008
    length 16.4922
    axis 0 -0 -20 xyz
    dof rx ry rz
    limits( -inf , inf )
( -inf , inf )
( -inf , inf )

  end
  begin
    id 8
    name rtibia
    direction -0.34202 -0.939693 -7.74345e-010
    length 18.2421
    axis 0 -0 -20 xyz
    dof rz ry rx
    limits( -inf , inf )
( -inf , inf )
( -inf , inf )

  end
  begin
    id 9
    name rfoot
    direction -0.124331 -0.341598 0.931586
    length 5.45787
    axis -90 -7.62852e-016 -20 xyz
    dof ry rx rz
    limits( -inf , inf )
( -inf , inf )
( -inf , inf )

  end
  begin
    id 10
    name rtoes
    direction 0 0 0
    length 0
    axis 0 0 0 xyz
    dof rz ry rx
    limits( -inf , inf )
( -inf , inf )
( -inf , inf )

  end
  begin
    id 11
    name lowerbackDummy
    direction 0 0 0
    length 0
    axis 0 -0 0 xyz
  end
  begin
    id 12
    name lowerback
    direction -0.0218484 0.994884 -0.0986304
    length 4.45607
    axis 0 -0 0 xyz
    dof rx ry rz
    limits( -inf , inf )
( -inf , inf )
( -inf , inf )

  end
  begin
    id 13
    name upperback
    direction -0.00973057 0.999717 -0.0217111
    length 4.47449
    axis 0 -0 0 xyz
    dof rx ry rz
    limits( -inf , inf )
( -inf , inf )
( -inf , inf )

  end
  begin
    id 14
    name thorax
    direction -0.000928171 0.999699 0.0245198
    length 4.50973
    axis 0 -0 0 xyz
    dof rx ry rz
    limits( -inf , inf )
( -inf , inf )
( -inf , inf )

  end
  begin
    id 15
    name rclavicle
    direction -0.9009 0.425937 -0.0834055
    length 7.28587
    axis 0 -0 0 xyz
    dof rx ry rz
    limits( -inf , inf )
( -inf , inf )
( -inf , inf )

  end
  begin
    id 16
    name rhumerus
    direction -1 -2.23604e-007 -1.42637e-007
    length 13.5704
    axis 180 30 90 xyz
    dof rx ry rz
    limits( -inf , inf )
( -inf , inf )
( -inf , inf )

  end
  begin
    id 17
    name rradius
    direction -1 5.68281e-008 -4.4952e-007
    length 8.06782
    axis 180 30 90 xyz
    dof rz ry rx
    limits( -inf , inf )
( -inf , inf )
( -inf , inf )

  end
  begin
    id 18
    name rwrist
    direction -1 1.51393e-007 1.38143e-007
    length 4.03391
    axis -90 -90 0 xyz
    dof rz rx ry
    limits( -inf , inf )
( -inf , inf )
( -inf , inf )

  end
  begin
    id 19
    name rthumb
    direction 0 0 0
    length 0
    axis 0 0 0 xyz
    dof ry rx rz
    limits( -inf , inf )
( -inf , inf )
( -inf , inf )

  end
  begin
    id 20
    name rhand
    direction -1 -3.34077e-007 -5.59631e-007
    length 1.29744
    axis -90 -90 0 xyz
    dof ry rx rz
    limits( -inf , inf )
( -inf , inf )
( -inf , inf )

  end
  begin
    id 21
    name rfingers
    direction 0 0 0
    length 0
    axis 0 0 0 xyz
    dof rz ry rx
    limits( -inf , inf )
( -inf , inf )
( -inf , inf )

  end
  begin
    id 22
    name lclavicle
    direction 0.940017 0.332249 -0.0773232
    length 8.29589
    axis 0 -0 0 xyz
    dof rx ry rz
    limits( -inf , inf )
( -inf , inf )
( -inf , inf )

  end
  begin
    id 23
    name lhumerus
    direction 1 7.41158e-008 -1.44768e-008
    length 12.0042
    axis 180 -30 -90 xyz
    dof rx ry rz
    limits( -inf , inf )
( -inf , inf )
( -inf , inf )

  end
  begin
    id 24
    name lradius
    direction 1 -1.32972e-007 3.10821e-007
    length 8.1902
    axis 180 -30 -90 xyz
    dof rz ry rx
    limits( -inf , inf )
( -inf , inf )
( -inf , inf )

  end
  begin
    id 25
    name lwrist
    direction 1 3.08957e-007 4.01394e-007
    length 4.09509
    axis -90 90 0 xyz
    dof rz rx ry
    limits( -inf , inf )
( -inf , inf )
( -inf , inf )

  end
  begin
    id 26
    name lthumb
    direction 0 0 0
    length 0
    axis 0 0 0 xyz
    dof ry rx rz
    limits( -inf , inf )
( -inf , inf )
( -inf , inf )

  end
  begin
    id 27
    name lhand
    direction 1 -1.64125e-007 -6.99514e-007
    length 1.37229
    axis -90 90 0 xyz
    dof ry rx rz
    limits( -inf , inf )
( -inf , inf )
( -inf , inf )

  end
  begin
    id 28
    name lfingers
    direction 0 0 0
    length 0
    axis 0 0 0 xyz
    dof rz ry rx
    limits( -inf , inf )
( -inf , inf )
( -inf , inf )

  end
  begin
    id 29
    name lowerneck
    direction -0.030798 0.998024 0.0547665
    length 3.93918
    axis 0 -0 0 xyz
    dof rx ry rz
    limits( -inf , inf )
( -inf , inf )
( -inf , inf )

  end
  begin
    id 30
    name upperneck
    direction 0.0531588 0.996611 -0.0627736
    length 3.95491
    axis 0 -0 0 xyz
    dof rx ry rz
    limits( -inf , inf )
( -inf , inf )
( -inf , inf )

  end
  begin
    id 31
    name head
    direction 0 0 0
    length 0
    axis 0 0 0 xyz
    dof rx ry rz
    limits( -inf , inf )
( -inf , inf )
( -inf , inf )

  end
:hierarchy
  begin
    root lfemurDummy rfemurDummy lowerbackDummy
    lfemurDummy lfemur
    lfemur ltibia
    ltibia lfoot
    lfoot ltoes
    rfemurDummy rfemur
    rfemur rtibia
    rtibia rfoot
    rfoot rtoes
    lowerbackDummy lowerback
    lowerback upperback
    upperback thorax
    thorax rclavicle lclavicle lowerneck
    rclavicle rhumerus
    rhumerus rradius
    rradius rwrist
    rwrist rthumb rhand
    rhand rfingers
    lclavicle lhumerus
    lhumerus lradius
    lradius lwrist
    lwrist lthumb lhand
    lhand lfingers
    lowerneck upperneck
    upperneck head
  end

:SAMPLES-PER-SECOND 30
:FULLY-SPECIFIED
:DEGREES
10
root  8.284088946 39.43333363 4.627911125 0.5520019531 -53.54499817 8.220001221
lowerback  13.70040035 0.6475020051 0.7813879848
upperback  3.836610079 0.9441800117 1.848719954
thorax  -3.656069994 0.4201360047 1.338559985
lowerneck  -2.425770044 9.317119598 -0.254821986
upperneck  0.2312030047 12.56410027 -8.222419739
head  1.033800006 6.2104702 -2.291169882
lclavicle  0 -9.442270133e-015 7.951389973e-016
lhumerus  -0.4104120135 -4.139929771 75.57099915
lradius  2.687968496e-031 -2.289905981e-031 139.5720062
lwrist  -1.412450015e-030 -1.765562519e-031 7.262869835
lhand  -1.496451383e-031 -27.76390076 20.11240005
lfingers  90 7.125020027 -90
lthumb  89.89689403 5.08795885 91.16245106
rclavicle  0 -9.442270133e-015 7.951389973e-016
rhumerus  -6.207180023 22.3465004 -78.72399902
rradius  -2.461467549e-031 2.531802035e-031 134.1929932
rwrist  7.062250077e-031 1.765562519e-031 -15.37909985
rhand  -7.920061211e-032 -33.2840004 9.303460121
rfingers  -90 -7.125020027 -90
rthumb  -92.93752616 -24.25625642 -97.11982154
rfemur  -17.47430038 10.85219955 -1.304209948
rtibia  -0 0 52.32040024
rfoot  -4.566246965e-032 -14.84160042 -2.730479956
rtoes  5.373923086 19.29304026 -105.8922705
lfemur  -27.92399979 11.07069969 -4.152490139
ltibia  -0 0 63.4673996
lfoot  -0 18.27039909 -9.383609772
ltoes  -4.250644065 -19.5611806 -102.515957
11
root  8.385333114 39.57888986 4.774511142 0.07400512695 -54.42099762 8.819000244
lowerback  14.50660038 0.8522269726 1.004449964
upperback  4.039959908 1.241739988 1.801509976
thorax  -3.878410101 0.5600360036 1.106469989
lowerneck  -2.956830025 9.38724041 -0.1767970026
upperneck  0.1655579954 12.67560005 -8.555480003
head  1.139549971 6.252679825 -2.380389929
lclavicle  0 -9.442270133e-015 7.951389973e-016
lhumerus  0.06829690188 -4.10119009 75.54859924
lradius  2.700477333e-031 -2.275140921e-031 139.8860016
lwrist  -7.062250077e-031 -0 6.580359936
lhand  -1.496451383e-031 -27.76390076 20.11240005
lfingers  90 7.125020027 -90
lthumb  89.89689403 5.08795885 91.16245106
rclavicle  0 -9.442270133e-015 7.951389973e-016
rhumerus  -6.97028017 22.45299911 -78.35399628
rradius  -2.429637899e-031 2.562362917e-031 133.477005
rwrist  7.062250077e-031 -3.531125038e-031 -15.04660034
rhand  -7.920061211e-032 -33.2840004 9.303460121
rfingers  -90 -7.125020027 -90
rthumb  -92.93752616 -24.25625642 -97.11982154
rfemur  -18.93230057 11.29539967 -2.67414999
rtibia  -0 0 53.01779938
rfoot  -5.067263882e-032 -11.4939003 -0.5164290071
rtoes  5.373923086 19.29304026 -105.8922705
lfemur  -29.18079948 11.75090027 -4.673049927
ltibia  -0 0 64.80899811
lfoot  -0 18.91729927 -9.640170097
ltoes  -4.250644065 -19.5611806 -102.515957
12
root  8.492622225 39.70822312 4.92144457 -0.2640075684 -55.63800049 9.143005371
lowerback  15.47109985 1.13172996 1.329570055
upperback  4.234670162 1.658310056 1.789839983
thorax  -4.188539982 0.7555400133 0.8237540126
lowerneck  -3.24684 9.489910126 -0.128448993
upperneck  -0.0739653036 12.81200027 -8.947730064
head  1.153049946 6.31772995 -2.499900103
lclavicle  0 -9.442270133e-015 7.951389973e-016
lhumerus  0.4888730049 -3.822570086 75.49690247
lradius  2.711839905e-031 -2.261585366e-031 140.1730042
lwrist  -1.412450015e-030 -1.765562519e-031 6.266389847
lhand  -1.496451383e-031 -27.76390076 20.11240005
lfingers  90 7.125020027 -90
lthumb  89.89689403 5.08795885 91.16245106
rclavicle  0 -9.442270133e-015 7.951389973e-016
rhumerus  -7.739530087 22.63750076 -78.07479858
rradius  -2.386638157e-031 2.602460824e-031 132.522995
rwrist  1.412450015e-030 1.765562519e-031 -14.74709988
rhand  -7.920061211e-032 -33.2840004 9.303460121
rfingers  -90 -7.125020027 -90
rthumb  -92.93752616 -24.25625642 -97.11982154
rfemur  -20.60239983 12.10309982 -3.841769934
rtibia  -0 0 53.78590012
rfoot  -4.45705903e-032 -7.979370117 1.293779969
rtoes  5.373923086 19.29304026 -105.8922705
lfemur  -30.17250061 12.70470047 -4.978960037
ltibia  -0 0 66.0667038
lfoot  -0 17.30920029 -8.734829903
ltoes  -4.250644065 -19.5611806 -102.515957
13
root  8.591044418 39.81266773 5.073822202 -1.095001221 -57.01399994 10.04100037
lowerback  16.36980057 1.466359973 1.240800023
upperback  4.48886013 2.075079918 1.688410044
thorax  -4.403610229 0.9521530271 0.6727570295
lowerneck  -3.654210091 9.597419739 -0.05575529858
upperneck  -0.2627150118 12.96199989 -9.398320198
head  1.211019993 6.383570194 -2.634429932
lclavicle  0 -9.442270133e-015 7.951389973e-016
lhumerus  0.9191079736 -3.38993001 75.37449646
lradius  2.723565426e-031 -2.247450869e-031 140.470993
lwrist  -1.412450015e-030 -0 6.435140133
lhand  -1.496451383e-031 -27.76390076 20.11240005
lfingers  90 7.125020027 -90
lthumb  89.89689403 5.08795885 91.16245106
rclavicle  0 -9.442270133e-015 7.951389973e-016
rhumerus  -8.379340172 22.93989944 -77.81569672
rradius  -2.333186126e-031 2.650487981e-031 131.3569946
rwrist  7.062250077e-031 -1.765562519e-031 -14.67959976
rhand  -7.920061211e-032 -33.2840004 9.303460121
rfingers  -90 -7.125020027 -90
rthumb  -92.93752616 -24.25625642 -97.11982154
rfemur  -22.39640045 13.04909992 -5.35021019
rtibia  -0 0 54.56069946
rfoot  -4.428706822e-032 -4.685530186 2.589760065
rtoes  5.373923086 19.29304026 -105.8922705
lfemur  -30.98049927 13.76469994 -5.64440012
ltibia  -0 0 67.165802
lfoot  9.17206708e-032 15.74750042 -6.956930161
ltoes  -4.250644065 -19.5611806 -102.515957
14
root  8.671066705 39.8895564 5.235933319 -2.692001343 -58.37400055 11.81399536
lowerback  17.1026001 1.791229963 0.6598809958
upperback  4.830780029 2.376009941 1.413300037
thorax  -4.445469856 1.094390035 0.6374570131
lowerneck  -4.17113018 9.782710075 0.1491940022
upperneck  -0.4116460085 13.21800041 -9.868780136
head  1.319280028 6.497169971 -2.786149979
lclavicle  0 -9.442270133e-015 7.951389973e-016
lhumerus  1.426380038 -2.736799955 74.92669678
lradius  2.736114536e-031 -2.232156195e-031 140.7920074
lwrist  -1.412450015e-030 -1.765562519e-031 6.924540043
lhand  -1.496451383e-031 -27.76390076 20.11240005
lfingers  90 7.125020027 -90
lthumb  89.89689403 5.08795885 91.16245106
rclavicle  0 -9.442270133e-015 7.951389973e-016
rhumerus  -8.861300468 23.4109993 -77.73880005
rradius  -2.266835172e-031 2.70745311e-031 129.9380035
rwrist  1.412450015e-030 -0 -14.37769985
rhand  -7.920061211e-032 -33.2840004 9.303460121
rfingers  -90 -7.125020027 -90
rthumb  -92.93752616 -24.25625642 -97.11982154
rfemur  -24.12129974 14.09850025 -7.27835989
rtibia  -0 0 55.2336998
rfoot  -4.417884368e-032 -2.43163991 3.493710041
rtoes  5.373923086 19.29304026 -105.8922705
lfemur  -31.64780045 14.84609985 -6.762080193
ltibia  -0 0 68.01439667
lfoot  9.10820466e-032 14.25360012 -4.730490208
ltoes  -4.250644065 -19.5611806 -102.515957
